# xmcd CD database file
#
# Track frame offsets:
#	150
#	17027
#	39707
#	59764
#	79452
#	102252
#	122402
#	141422
#	165047
#	188550
#	218327
#	245434
#	268830
#	296680
#	313587
#
# Disc length: 4532 seconds
#
# Revision: 38
# Processed by: cddbd v1.5.2PL0 Copyright (c) Steve Scherf et al.
# Submitted via: CDex 1.51
#
DISCID=d411b20f
DTITLE=???? - the history of shogo hamada ?since 1975?
DYEAR=2000
DGENRE=J-Rock
TTITLE0=???? (by AIDO)
TTITLE1=??????
TTITLE2=???
TTITLE3=???????
TTITLE4=?????
TTITLE5=??????
TTITLE6=???????
TTITLE7=MONEY
TTITLE8=AMERICA
TTITLE9=J.BOY
TTITLE10=?????????
TTITLE11=?????????
TTITLE12=????
TTITLE13=???????
TTITLE14=??????
EXTD=YEAR: 2000
EXTT0=
EXTT1=
EXTT2=
EXTT3=
EXTT4=
EXTT5=
EXTT6=
EXTT7=
EXTT8=
EXTT9=
EXTT10=
EXTT11=
EXTT12=
EXTT13=
EXTT14=
PLAYORDER=
